<?xml version="1.0" standalone="no"?>
<!DOCTYPE svg PUBLIC "-//W3C//DTD SVG 20010904//EN"
 "http://www.w3.org/TR/2001/REC-SVG-20010904/DTD/svg10.dtd">
<svg version="1.0" xmlns="http://www.w3.org/2000/svg"
 width="300.000000pt" height="281.000000pt" viewBox="0 0 300.000000 281.000000"
 preserveAspectRatio="xMidYMid meet">
<metadata>
Created by potrace 1.10, written by Peter Selinger 2001-2011
</metadata>
<g transform="translate(0.000000,281.000000) scale(0.100000,-0.100000)"
fill="#000000" stroke="none">
<path d="M1289 2141 c-158 -41 -262 -104 -385 -234 -60 -63 -92 -107 -122
-169 -63 -128 -76 -190 -76 -358 -1 -134 1 -151 27 -225 88 -251 287 -437 547
-510 90 -26 279 -26 375 -1 151 40 273 114 385 233 79 84 132 172 167 278 24
72 27 95 27 230 1 170 -12 234 -70 348 -92 184 -263 330 -462 395 -108 34
-302 41 -413 13z m285 -7 l46 -7 0 -41 0 -42 -127 1 c-71 0 -140 -3 -155 -8
-28 -7 -28 -7 -28 42 0 49 1 50 33 54 56 7 182 7 231 1z m-304 -73 c0 -10 9
-26 20 -36 11 -10 20 -26 20 -35 0 -10 9 -29 20 -43 17 -22 18 -26 4 -31 -33
-13 -45 -7 -38 18 9 37 -26 68 -65 56 -78 -22 -191 -104 -191 -138 0 -20 29
-52 48 -52 12 0 10 -6 -8 -25 l-23 -24 -18 32 c-10 18 -23 43 -29 57 -6 14
-21 36 -33 48 l-22 24 40 34 c57 49 146 102 207 124 57 20 68 18 68 -9z m493
-1 c78 -33 207 -122 207 -143 0 -8 -11 -24 -25 -37 -14 -13 -25 -31 -25 -40 0
-9 -9 -25 -20 -35 -11 -10 -20 -29 -20 -43 l0 -26 -31 30 c-26 25 -28 29 -12
33 26 5 53 31 53 52 0 31 -118 118 -188 139 -46 13 -76 -12 -69 -57 5 -31 4
-33 -16 -27 -36 10 -42 22 -24 42 9 10 17 24 17 31 0 7 11 26 25 43 14 16 25
38 25 49 0 26 19 24 103 -11z m-214 -66 c17 -4 31 -12 31 -18 0 -7 -36 -11
-115 -11 -82 0 -115 3 -115 12 0 19 132 30 199 17z m-279 -44 c0 -5 -28 -24
-62 -41 -35 -17 -77 -42 -95 -55 -37 -28 -43 -29 -43 -10 0 14 17 27 109 83
54 33 91 42 91 23z m437 -2 c56 -24 153 -90 153 -104 0 -19 -2 -19 -67 24 -32
20 -77 46 -100 56 -24 10 -40 23 -37 27 7 12 18 11 51 -3z m-151 -69 c241 -44
420 -277 401 -523 -14 -185 -144 -361 -315 -427 -80 -31 -231 -38 -318 -14
-124 33 -258 148 -314 267 -172 367 144 770 546 697z m519 -40 c43 -58 105
-176 105 -201 0 -13 -58 -58 -75 -58 -2 0 -9 17 -15 38 -16 49 -54 116 -102
176 l-39 50 38 23 c21 13 41 23 45 23 3 0 23 -23 43 -51z m-1128 24 l30 -16
-47 -62 c-25 -33 -59 -92 -75 -130 -16 -39 -30 -72 -31 -74 -2 -2 -19 6 -38
18 l-35 22 16 37 c39 93 120 222 140 222 6 0 24 -8 40 -17z m29 -157 c-25 -38
-48 -81 -51 -97 -7 -29 -35 -41 -35 -15 0 19 53 118 86 161 47 62 47 22 0 -49z
m1022 -19 c33 -55 44 -97 27 -104 -6 -2 -17 13 -24 32 -7 20 -32 65 -56 100
-26 39 -38 66 -31 69 14 5 42 -27 84 -97z m44 -128 c17 10 25 10 45 0 19 -10
31 -10 55 -1 18 6 33 10 36 8 29 -30 28 -324 -2 -353 -3 -3 -19 0 -35 6 -21 9
-35 10 -50 2 -14 -8 -27 -8 -46 1 -21 9 -31 9 -47 -1 -27 -17 -29 -12 -17 33
l11 38 28 -27 c24 -23 30 -25 48 -14 32 20 42 53 42 140 0 124 -37 175 -90
124 l-27 -26 -11 39 c-16 53 -16 55 14 35 22 -14 29 -14 46 -4z m-1129 -2 c27
0 33 -11 21 -42 -6 -14 -9 -14 -30 6 -50 47 -87 -8 -88 -131 0 -124 37 -178
89 -130 l24 23 11 -27 c14 -38 14 -38 -20 -31 -19 4 -36 2 -45 -5 -9 -8 -22
-9 -32 -4 -10 4 -33 8 -52 9 -31 0 -36 4 -44 35 -10 38 -4 254 8 283 6 14 14
17 36 12 15 -4 36 -2 46 4 10 6 25 8 33 4 8 -4 27 -6 43 -6z m-29 -172 c1
-115 -9 -143 -27 -74 -10 35 -4 170 8 189 14 23 18 -3 19 -115z m1186 84 c4
-19 6 -47 5 -64 -4 -107 -6 -123 -18 -128 -10 -4 -13 21 -13 114 0 78 4 118
11 116 5 -2 12 -19 15 -38z m-1240 -283 c0 -25 78 -170 115 -213 l36 -42 -30
-16 c-17 -8 -34 -15 -40 -15 -23 0 -151 213 -151 252 0 7 12 20 28 30 34 21
42 21 42 4z m104 -32 c10 -25 34 -68 52 -95 38 -54 40 -59 20 -59 -21 0 -116
150 -116 185 0 31 26 13 44 -31z m1106 35 c0 -17 -67 -140 -94 -174 -21 -26
-25 -28 -31 -13 -5 11 1 28 16 46 13 15 37 56 53 90 16 34 36 62 43 62 7 0 13
-5 13 -11z m140 -46 c0 -34 -131 -252 -152 -253 -4 0 -23 9 -42 21 l-34 20 53
75 c30 41 64 102 76 135 l22 59 38 -22 c22 -12 39 -28 39 -35z m-279 -169 c10
-9 19 -23 19 -30 0 -7 11 -26 25 -42 14 -17 23 -36 20 -44 -9 -22 -119 -96
-187 -127 -105 -47 -106 -47 -123 -8 -7 18 -21 39 -29 47 -9 7 -16 19 -16 27
0 7 -7 25 -16 39 -19 28 -18 30 18 39 27 7 28 6 22 -24 -8 -37 9 -61 43 -61
57 0 213 102 213 139 0 21 -30 51 -52 51 -25 0 -23 9 10 43 l27 29 3 -30 c2
-17 12 -38 23 -48z m-819 39 c21 -18 23 -33 6 -33 -18 0 -48 -31 -48 -50 0
-37 148 -140 202 -140 35 0 62 32 54 65 -7 28 -7 29 29 15 l26 -10 -20 -26
c-11 -15 -18 -31 -15 -36 4 -5 -5 -22 -18 -36 -14 -15 -28 -35 -31 -44 -4 -10
-14 -18 -23 -18 -49 0 -256 126 -271 165 -2 8 5 26 16 41 12 15 21 34 21 44 0
9 9 25 20 35 11 10 20 24 20 32 0 17 10 17 32 -4z m60 -102 c32 -22 74 -46 93
-52 32 -12 49 -39 25 -39 -33 0 -190 96 -190 116 0 20 6 18 72 -25z m718 25
c0 -15 -67 -61 -143 -97 -34 -17 -50 -20 -58 -12 -8 8 9 21 64 48 42 20 83 45
93 56 20 22 44 25 44 5z m-280 -132 c0 -16 -103 -28 -174 -19 -34 5 -56 12
-56 20 0 9 30 12 115 12 83 -1 115 -4 115 -13z m38 -109 l-3 -40 -55 -8 c-52
-7 -195 -1 -232 9 -13 4 -18 16 -18 42 l0 37 155 0 156 0 -3 -40z"/>
<path d="M1530 1774 c-47 -59 -53 -78 -31 -105 15 -18 21 -20 39 -10 18 9 22
9 22 -2 0 -18 -32 -47 -53 -47 -9 0 -18 -3 -20 -7 -3 -5 33 -8 79 -8 46 0 84
3 84 8 0 4 -11 7 -24 7 -14 0 -32 10 -40 22 -21 30 -20 41 3 28 26 -13 50 -3
57 25 7 27 2 37 -46 92 l-35 41 -35 -44z m58 -57 c3 -12 -3 -17 -22 -17 -25 0
-35 18 -19 34 12 12 38 2 41 -17z"/>
<path d="M1276 1794 c-21 -20 -20 -53 2 -85 45 -69 67 -99 72 -99 3 1 24 26
48 57 52 69 57 116 16 135 -23 11 -29 10 -46 -11 l-19 -24 -15 21 c-18 26 -37
28 -58 6z m124 -46 c0 -4 -5 -18 -11 -32 -17 -38 -40 -41 -66 -11 -36 41 -30
52 27 51 27 -1 50 -4 50 -8z"/>
<path d="M1043 1528 c-2 -5 -3 -8 -1 -8 2 0 186 -1 411 -3 266 -1 407 1 407 8
0 12 -809 14 -817 3z"/>
<path d="M1050 1395 l0 -85 30 0 c19 0 30 5 30 14 0 8 13 17 29 21 32 7 55 29
65 62 5 17 1 29 -18 48 -21 21 -35 25 -81 25 l-55 0 0 -85z m88 23 c2 -22 -3
-39 -12 -48 -14 -11 -16 -6 -16 40 0 60 23 67 28 8z"/>
<path d="M1246 1459 c-21 -16 -26 -29 -26 -64 0 -58 26 -89 73 -89 64 0 98 54
77 120 -19 56 -75 71 -124 33z m64 -70 c0 -52 -3 -70 -12 -67 -13 5 -24 99
-14 124 14 36 26 9 26 -57z"/>
<path d="M1393 1395 l1 -85 28 0 c24 0 28 4 28 28 l1 27 15 -27 c11 -21 22
-28 44 -28 17 0 30 2 30 4 0 2 -11 28 -24 58 l-24 55 26 27 c19 19 22 26 11
26 -9 0 -26 -11 -39 -25 -13 -14 -27 -25 -32 -25 -4 0 -8 11 -8 25 0 21 -5 25
-29 25 l-28 0 0 -85z"/>
<path d="M1560 1395 l0 -85 65 0 c37 0 65 4 65 10 0 6 -16 10 -35 10 -35 0
-35 0 -35 45 0 43 1 45 29 45 17 0 33 5 36 10 4 6 -8 10 -29 10 -20 0 -36 5
-36 10 0 6 16 10 36 10 21 0 33 4 29 10 -3 6 -33 10 -66 10 l-59 0 0 -85z"/>
<path d="M1701 1396 l-1 -86 30 0 c20 0 30 5 30 15 0 20 6 19 30 -5 25 -25 32
-25 61 0 l24 19 -35 1 -35 0 28 25 c30 28 35 61 13 90 -10 14 -30 20 -79 23
l-65 4 -1 -86z m84 14 c0 -26 -5 -45 -12 -47 -9 -3 -13 10 -13 47 0 37 4 50
13 48 7 -3 12 -22 12 -48z"/>
<path d="M1045 1260 c-4 -7 135 -10 409 -10 271 0 416 3 416 10 0 14 -817 14
-825 0z"/>
<path d="M1312 1133 l-39 -58 33 -44 c19 -24 34 -48 34 -52 0 -21 19 -5 54 45
l37 54 -37 56 c-20 31 -38 56 -40 56 -2 0 -21 -26 -42 -57z m62 -36 c12 -18 0
-47 -22 -55 -19 -6 -34 35 -20 58 14 23 27 22 42 -3z"/>
<path d="M1536 1174 c-9 -8 -16 -24 -16 -34 0 -10 -9 -20 -20 -23 -15 -4 -20
-14 -20 -36 0 -37 29 -57 60 -41 15 8 20 8 20 -3 0 -23 -24 -47 -55 -56 -23
-7 -9 -9 60 -9 65 0 82 2 62 8 -30 9 -56 36 -57 58 0 9 5 10 19 2 24 -12 48
-4 62 21 12 23 -4 59 -26 59 -9 0 -15 9 -15 23 0 44 -43 62 -74 31z m52 -77
c3 -12 -3 -17 -22 -17 -25 0 -35 18 -19 34 12 12 38 2 41 -17z"/>
</g>
</svg>
